<svg version="1.1" xmlns="http://www.w3.org/2000/svg" viewBox="-24.909787753713847 -9.504871782229229 49.819575507427686 19.009743564458454" fill="none" stroke="black" stroke-width="0.6%" vector-effect="non-scaling-stroke">
    <path d="M 18.63128 5.10005 A 5 0.76295 180 0 0 23.90979 4.33828" />
    <path d="M 18.63128 5.10005 A 5 0.76295 180 0 0 17.87816 5.10231" />
    <path d="M 8.41551 7.48283 A 5 0.76295 180 0 0 17.87816 7.13875" />
    <path d="M 8.41551 7.48283 A 5 0.76295 180 0 0 -1.03938 7.78441" />
    <path d="M -11.03162 7.74192 A 5 0.76295 180 0 0 -1.03938 7.78441" />
    <path d="M -11.03162 6.34268 A 5 0.76295 180 0 0 -16.65486 6.22558" />
    <path d="M -23.90979 5.54462 A 5 0.76295 180 0 0 -16.65486 6.22558" />
    <path d="M -15.61547 -6.50028 A 5 0.76295 360 0 1 -17.87816 -7.13875 A 5 0.76295 360 0 1 -8.41551 -7.48283 A 5 0.76295 180 0 0 1.03938 -7.78441 A 5 0.76295 360 0 1 11.03162 -7.74192 L 11.03162 -6.34268" />
    <path d="M -15.61547 -6.50028 L -15.61547 -5.22335" />
    <path d="M -18.63128 -5.10005 A 5 0.76295 180 0 0 -13.35278 -5.86182 A 5 0.76295 180 0 0 -15.61547 -6.50028" />
    <path d="M -16.65486 -3.65732 A 5 0.76295 360 0 1 -23.90979 -4.33828 A 5 0.76295 360 0 1 -18.63128 -5.10005" />
    <path d="M -16.65486 -3.65732 L -16.65486 6.22558" />
    <path d="M -10.21578 -2.55867 A 5 0.76295 180 0 0 -9.39993 -2.97636 A 5 0.76295 180 0 0 -16.65486 -3.65732" />
    <path d="M -1.03938 -2.09848 A 5 0.76295 360 0 1 -11.03162 -2.14098 L -11.03162 7.74192" />
    <path d="M -11.03162 -2.14098 A 5 0.76295 360 0 1 -10.21578 -2.55867" />
    <path d="M -1.03938 -2.09848 L -1.03938 7.78441" />
    <path d="M 8.41551 -2.40007 A 5 0.76295 180 0 0 -1.03938 -2.09848" />
    <path d="M 8.41551 -2.40007 L 8.41551 7.48283" />
    <path d="M 15.61547 -3.38261 A 5 0.76295 360 0 1 17.87816 -2.74415 L 17.87816 7.13875" />
    <path d="M 17.87816 -2.74415 A 5 0.76295 360 0 1 8.41551 -2.40007" />
    <path d="M 18.63128 -4.78285 A 5 0.76295 180 0 0 13.35278 -4.02108 A 5 0.76295 180 0 0 15.61547 -3.38261" />
    <path d="M 18.63128 -4.78285 L 18.63128 5.10005" />
    <path d="M 16.65486 -6.22558 A 5 0.76295 0 0 1 23.90979 -5.54462 L 23.90979 4.33828" />
    <path d="M 23.90979 -5.54462 A 5 0.76295 0 0 1 18.63128 -4.78285" />
    <path d="M 10.21578 -7.32423 A 5 0.76295 180 0 0 9.39993 -6.90654 A 5 0.76295 180 0 0 16.65486 -6.22558" />
    <path d="M 10.21578 -7.32423 L 10.21578 -6.48885" />
    <path d="M 11.03162 -7.74192 A 5 0.76295 360 0 1 10.21578 -7.32423" />
    <path d="M -17.87816 -7.13875 L -17.87816 -5.10231" />
    <path d="M -23.90979 -4.33828 L -23.90979 5.54462" />
</svg>