<svg version="1.1" xmlns="http://www.w3.org/2000/svg" viewBox="-14.588577651726686 -9.230196721298205 29.17715530345337 18.46039344259641" fill="none" stroke="black" stroke-width="0.6%" vector-effect="non-scaling-stroke">
    <path d="M 12.35632 5.58174 A 1 0.24934 180 0 0 13.58858 5.33922" />
    <path d="M 10.83382 6.49742 A 1 0.24934 180 0 0 12.35632 6.28482" />
    <path d="M 10.83382 6.49742 A 1 0.24934 180 0 0 10.01243 6.47207" />
    <path d="M 8.25202 7.25113 A 1 0.24934 180 0 0 10.01243 7.0892" />
    <path d="M 8.25202 7.25113 A 1 0.24934 180 0 0 6.78633 7.2363" />
    <path d="M 4.86245 7.76903 A 1 0.24934 180 0 0 6.78633 7.67362" />
    <path d="M 4.86245 7.76903 A 1 0.24934 180 0 0 2.99383 7.78271" />
    <path d="M 0.99692 8.00042 A 1 0.24934 180 0 0 2.99383 7.98086" />
    <path d="M 0.99692 8.00042 A 1 0.24934 180 0 0 -0.99692 8.00042" />
    <path d="M -2.99383 7.98086 A 1 0.24934 180 0 0 -0.99692 8.00042" />
    <path d="M -2.99383 7.78271 A 1 0.24934 180 0 0 -4.86245 7.76903" />
    <path d="M -6.78633 7.67362 A 1 0.24934 180 0 0 -4.86245 7.76903" />
    <path d="M -6.78633 7.2363 A 1 0.24934 180 0 0 -8.25202 7.25113" />
    <path d="M -10.01243 7.0892 A 1 0.24934 180 0 0 -8.25202 7.25113" />
    <path d="M -10.01243 6.47207 A 1 0.24934 180 0 0 -10.83382 6.49742" />
    <path d="M -12.35632 6.28482 A 1 0.24934 180 0 0 -10.83382 6.49742" />
    <path d="M -13.58858 5.33922 A 1 0.24934 180 0 0 -12.35632 5.58174" />
    <path d="M -8.25202 -2.43304 L -8.25202 2.43304" />
    <path d="M -9.66187 -6.8996 A 1 0.24934 360 0 1 -10.01243 -7.0892 A 1 0.24934 360 0 1 -8.25202 -7.25113 A 1 0.24934 180 0 0 -6.49161 -7.41306 A 1 0.24934 180 0 0 -6.63897 -7.54334 A 1 0.24934 360 0 1 -6.78633 -7.67362 L -6.78633 -7.2363" />
    <path d="M -9.66187 -6.8996 L -9.66187 -6.52041" />
    <path d="M -10.83382 -6.49742 A 1 0.24934 180 0 0 -9.31132 -6.71001 A 1 0.24934 180 0 0 -9.66187 -6.8996" />
    <path d="M -11.739 -6.05447 A 1 0.24934 0 0 1 -12.35632 -6.28482 A 1 0.24934 0 0 1 -10.83382 -6.49742" />
    <path d="M -11.739 -6.05447 L -11.739 -5.59376" />
    <path d="M -12.35513 -5.58167 A 1 0.24934 180 0 0 -11.12169 -5.82411 A 1 0.24934 180 0 0 -11.739 -6.05447" />
    <path d="M -12.66704 -5.09065 A 1 0.24934 0 0 1 -13.58858 -5.33922 A 1 0.24934 0 0 1 -12.35513 -5.58167" />
    <path d="M -12.66704 -5.09065 L -12.66704 -4.59352 A 1 0.24934 180 0 0 -11.74549 -4.84209 A 1 0.24934 180 0 0 -12.66704 -5.09065 Z" />
    <path d="M -12.35513 -4.10251 A 1 0.24934 0 0 1 -13.58858 -4.34495 A 1 0.24934 0 0 1 -12.66704 -4.59352" />
    <path d="M -12.35513 -4.10251 L -12.35513 -3.4115" />
    <path d="M -11.739 -3.62971 A 1 0.24934 180 0 0 -11.12169 -3.86006 A 1 0.24934 180 0 0 -12.35513 -4.10251" />
    <path d="M -10.83382 -3.18676 A 1 0.24934 360 0 1 -12.35632 -3.39935 A 1 0.24934 360 0 1 -11.739 -3.62971" />
    <path d="M -10.83382 -3.18676 L -10.83382 6.49742" />
    <path d="M -9.66187 -2.78457 A 1 0.24934 180 0 0 -9.31132 -2.97416 A 1 0.24934 180 0 0 -10.83382 -3.18676" />
    <path d="M -8.25202 -2.43304 A 1 0.24934 360 0 1 -10.01243 -2.59497 L -10.01243 7.0892" />
    <path d="M -10.01243 -2.59497 A 1 0.24934 360 0 1 -9.66187 -2.78457" />
    <path d="M -8.25202 -2.43304 L -8.25202 7.25113" />
    <path d="M -6.63897 -2.14083 A 1 0.24934 180 0 0 -6.49161 -2.27111 A 1 0.24934 180 0 0 -8.25202 -2.43304" />
    <path d="M -4.86245 -1.91514 A 1 0.24934 360 0 1 -6.78633 -2.01056 L -6.78633 7.67362" />
    <path d="M -6.78633 -2.01056 A 1 0.24934 360 0 1 -6.63897 -2.14083" />
    <path d="M -4.86245 -1.91514 L -4.86245 7.76903" />
    <path d="M -2.9662 -1.76152 A 1 0.24934 180 0 0 -2.93857 -1.81972 A 1 0.24934 180 0 0 -4.86245 -1.91514" />
    <path d="M -0.99692 -1.68375 A 1 0.24934 360 0 1 -2.99383 -1.70331 L -2.99383 7.98086" />
    <path d="M -2.99383 -1.70331 A 1 0.24934 360 0 1 -2.9662 -1.76152" />
    <path d="M -0.99692 -1.68375 L -0.99692 8.00042" />
    <path d="M 0.99692 -1.68375 A 1 0.24934 180 0 0 -0.99692 -1.68375" />
    <path d="M 0.99692 -1.68375 L 0.99692 8.00042" />
    <path d="M 2.9662 -1.76152 A 1 0.24934 0 0 1 2.99383 -1.70331 L 2.99383 7.98086" />
    <path d="M 2.99383 -1.70331 A 1 0.24934 0 0 1 0.99692 -1.68375" />
    <path d="M 4.86245 -1.91514 A 1 0.24934 180 0 0 2.93857 -1.81972 A 1 0.24934 180 0 0 2.9662 -1.76152" />
    <path d="M 4.86245 -1.91514 L 4.86245 7.76903" />
    <path d="M 6.63897 -2.14083 A 1 0.24934 360 0 1 6.78633 -2.01056 L 6.78633 7.67362" />
    <path d="M 6.78633 -2.01056 A 1 0.24934 360 0 1 4.86245 -1.91514" />
    <path d="M 8.25202 -2.43304 A 1 0.24934 180 0 0 6.49161 -2.27111 A 1 0.24934 180 0 0 6.63897 -2.14083" />
    <path d="M 8.25202 -2.43304 L 8.25202 7.25113" />
    <path d="M 9.66187 -2.78457 A 1 0.24934 360 0 1 10.01243 -2.59497 L 10.01243 7.0892" />
    <path d="M 10.01243 -2.59497 A 1 0.24934 360 0 1 8.25202 -2.43304" />
    <path d="M 10.83382 -3.18676 A 1 0.24934 180 0 0 9.31132 -2.97416 A 1 0.24934 180 0 0 9.66187 -2.78457" />
    <path d="M 10.83382 -3.18676 L 10.83382 6.49742" />
    <path d="M 11.739 -3.62971 A 1 0.24934 0 0 1 12.35632 -3.39935 L 12.35632 6.28482" />
    <path d="M 12.35632 -3.39935 A 1 0.24934 0 0 1 10.83382 -3.18676" />
    <path d="M 12.35513 -4.10251 A 1 0.24934 180 0 0 11.12169 -3.86006 A 1 0.24934 180 0 0 11.739 -3.62971" />
    <path d="M 12.35513 -4.10251 L 12.35513 -3.4115" />
    <path d="M 12.66704 -4.59352 A 1 0.24934 0 0 1 13.58858 -4.34495 L 13.58858 5.33922" />
    <path d="M 13.58858 -4.34495 A 1 0.24934 0 0 1 12.35513 -4.10251" />
    <path d="M 12.66704 -5.09065 A 1 0.24934 180 0 0 11.74549 -4.84209 A 1 0.24934 180 0 0 12.66704 -4.59352" />
    <path d="M 12.66704 -5.09065 L 12.66704 -4.59352" />
    <path d="M 12.35513 -5.58167 A 1 0.24934 360 0 1 13.58858 -5.33922 L 13.58858 -4.34495" />
    <path d="M 13.58858 -5.33922 A 1 0.24934 360 0 1 12.66704 -5.09065" />
    <path d="M 11.739 -6.05447 A 1 0.24934 180 0 0 11.12169 -5.82411 A 1 0.24934 180 0 0 12.35513 -5.58167" />
    <path d="M 11.739 -6.05447 L 11.739 -5.59376" />
    <path d="M 10.83382 -6.49742 A 1 0.24934 360 0 1 12.35632 -6.28482 L 12.35632 -5.58174" />
    <path d="M 12.35632 -6.28482 A 1 0.24934 360 0 1 11.739 -6.05447" />
    <path d="M 9.66187 -6.8996 A 1 0.24934 180 0 0 9.31132 -6.71001 A 1 0.24934 180 0 0 10.83382 -6.49742" />
    <path d="M 9.66187 -6.8996 L 9.66187 -6.52041" />
    <path d="M 8.25202 -7.25113 A 1 0.24934 360 0 1 10.01243 -7.0892 L 10.01243 -6.47207" />
    <path d="M 10.01243 -7.0892 A 1 0.24934 360 0 1 9.66187 -6.8996" />
    <path d="M 6.63897 -7.54334 A 1 0.24934 180 0 0 6.49161 -7.41306 A 1 0.24934 180 0 0 8.25202 -7.25113" />
    <path d="M 6.63897 -7.54334 L 6.63897 -7.28278" />
    <path d="M 4.86245 -7.76903 A 1 0.24934 0 0 1 6.78633 -7.67362 L 6.78633 -7.2363" />
    <path d="M 6.78633 -7.67362 A 1 0.24934 0 0 1 6.63897 -7.54334" />
    <path d="M 2.9662 -7.92265 A 1 0.24934 180 0 0 2.93857 -7.86445 A 1 0.24934 180 0 0 4.86245 -7.76903" />
    <path d="M 2.9662 -7.92265 L 2.9662 -7.80624" />
    <path d="M 0.99692 -8.00042 A 1 0.24934 360 0 1 2.99383 -7.98086 L 2.99383 -7.78271" />
    <path d="M 2.99383 -7.98086 A 1 0.24934 360 0 1 2.9662 -7.92265" />
    <path d="M -0.99692 -8.00042 A 1 0.24934 180 0 0 0.99692 -8.00042" />
    <path d="M -2.9662 -7.92265 A 1 0.24934 360 0 1 -2.99383 -7.98086 L -2.99383 -7.78271" />
    <path d="M -2.99383 -7.98086 A 1 0.24934 360 0 1 -0.99692 -8.00042" />
    <path d="M -2.9662 -7.92265 L -2.9662 -7.80624" />
    <path d="M -4.86245 -7.76903 A 1 0.24934 180 0 0 -2.93857 -7.86445 A 1 0.24934 180 0 0 -2.9662 -7.92265" />
    <path d="M -6.78633 -7.67362 A 1 0.24934 360 0 1 -4.86245 -7.76903" />
    <path d="M -6.63897 -7.54334 L -6.63897 -7.28278" />
    <path d="M -10.01243 -7.0892 L -10.01243 -6.47207" />
    <path d="M -12.35632 -6.28482 L -12.35632 -5.58174" />
    <path d="M -13.58858 -4.34495 L -13.58858 5.33922" />
    <path d="M -12.35632 -3.39935 L -12.35632 6.28482" />
</svg>