<svg version="1.1" xmlns="http://www.w3.org/2000/svg" viewBox="-37.4525363476064 -9.565262379156982 74.9050726952128 19.13052475831396" fill="none" stroke="black" stroke-width="0.6%" vector-effect="non-scaling-stroke">
    <path d="M 29.80438 5.99453 A 5 0.4894 180 0 0 36.45254 5.53249" />
    <path d="M 29.80438 5.99453 A 5 0.4894 180 0 0 27.10381 5.97814" />
    <path d="M 17.99575 7.51473 A 5 0.4894 180 0 0 27.10381 7.23575" />
    <path d="M 17.99575 7.51473 A 5 0.4894 180 0 0 9.31217 7.59638" />
    <path d="M -0.68783 8.07586 A 5 0.4894 180 1 0 9.31217 8.07586" />
    <path d="M -0.68783 8.03952 A 5 0.4894 180 0 0 -10.40601 7.89325" />
    <path d="M -20.12656 7.73193 A 5 0.4894 180 0 0 -10.40601 7.89325" />
    <path d="M -20.12656 6.74512 A 5 0.4894 180 0 0 -25.93722 6.73742" />
    <path d="M -33.78747 6.33532 A 5 0.4894 180 0 0 -25.93722 6.73742" />
    <path d="M -36.45254 4.4195 A 5 0.4894 180 0 0 -33.78747 4.85226" />
    <path d="M -25.13002 -6.84616 A 5 0.4894 0 0 1 -27.10381 -7.23575 A 5 0.4894 0 0 1 -17.99575 -7.51473 A 5 0.4894 180 0 0 -8.8877 -7.79371 A 5 0.4894 180 0 0 -9.09994 -7.93479 A 5 0.4894 0 0 1 -9.31217 -8.07586 L -9.31217 -7.59638" />
    <path d="M -25.13002 -6.84616 L -25.13002 -6.067" />
    <path d="M -29.80438 -5.99453 A 5 0.4894 180 0 0 -23.15623 -6.45658 A 5 0.4894 180 0 0 -25.13002 -6.84616" />
    <path d="M -31.56129 -5.0432 A 5 0.4894 0 0 1 -36.45254 -5.53249 A 5 0.4894 0 0 1 -29.80438 -5.99453" />
    <path d="M -31.56129 -5.0432 L -31.56129 -4.02385" />
    <path d="M -30.22875 -4.08529 A 5 0.4894 180 0 0 -26.67004 -4.55391 A 5 0.4894 180 0 0 -31.56129 -5.0432" />
    <path d="M -25.93722 -3.21456 A 5 0.4894 0 0 1 -33.78747 -3.61666 A 5 0.4894 0 0 1 -30.22875 -4.08529" />
    <path d="M -25.93722 -3.21456 L -25.93722 6.73742" />
    <path d="M -19.10677 -2.51626 A 5 0.4894 180 0 0 -18.08697 -2.81247 A 5 0.4894 180 0 0 -25.93722 -3.21456" />
    <path d="M -10.40601 -2.05873 A 5 0.4894 0 0 1 -20.12656 -2.22005 L -20.12656 7.73193" />
    <path d="M -20.12656 -2.22005 A 5 0.4894 0 0 1 -19.10677 -2.51626" />
    <path d="M -10.40601 -2.05873 L -10.40601 7.89325" />
    <path d="M -0.68664 -1.88677 A 5 0.4894 180 0 0 -0.68546 -1.89741 A 5 0.4894 180 0 0 -10.40601 -2.05873" />
    <path d="M 9.09994 -2.0172 A 5 0.4894 0 0 1 9.31217 -1.87612 L 9.31217 8.07586" />
    <path d="M 9.31217 -1.87612 A 5 0.4894 0 1 1 -0.68783 -1.87612 L -0.68783 8.07586" />
    <path d="M -0.68783 -1.87612 A 5 0.4894 0 0 1 -0.68664 -1.88677" />
    <path d="M 17.99575 -2.43725 A 5 0.4894 180 0 0 8.8877 -2.15827 A 5 0.4894 180 0 0 9.09994 -2.0172" />
    <path d="M 17.99575 -2.43725 L 17.99575 7.51473" />
    <path d="M 25.13002 -3.10582 A 5 0.4894 0 0 1 27.10381 -2.71623 L 27.10381 7.23575" />
    <path d="M 27.10381 -2.71623 A 5 0.4894 0 0 1 17.99575 -2.43725" />
    <path d="M 29.80438 -3.95745 A 5 0.4894 180 0 0 23.15623 -3.4954 A 5 0.4894 180 0 0 25.13002 -3.10582" />
    <path d="M 29.80438 -3.95745 L 29.80438 5.99453" />
    <path d="M 31.56129 -4.90878 A 5 0.4894 0 0 1 36.45254 -4.4195 L 36.45254 5.53249" />
    <path d="M 36.45254 -4.4195 A 5 0.4894 0 0 1 29.80438 -3.95745" />
    <path d="M 30.22875 -5.86669 A 5 0.4894 180 0 0 26.67004 -5.39807 A 5 0.4894 180 0 0 31.56129 -4.90878" />
    <path d="M 30.22875 -5.86669 L 30.22875 -4.92944" />
    <path d="M 25.93722 -6.73742 A 5 0.4894 0 0 1 33.78747 -6.33532 L 33.78747 -4.85226" />
    <path d="M 33.78747 -6.33532 A 5 0.4894 0 0 1 30.22875 -5.86669" />
    <path d="M 19.10677 -7.43572 A 5 0.4894 180 0 0 18.08697 -7.13952 A 5 0.4894 180 0 0 25.93722 -6.73742" />
    <path d="M 19.10677 -7.43572 L 19.10677 -6.84331" />
    <path d="M 10.40601 -7.89325 A 5 0.4894 0 0 1 20.12656 -7.73193 L 20.12656 -6.74512" />
    <path d="M 20.12656 -7.73193 A 5 0.4894 0 0 1 19.10677 -7.43572" />
    <path d="M 0.68664 -8.06522 A 5 0.4894 180 0 0 0.68546 -8.05457 A 5 0.4894 180 0 0 10.40601 -7.89325" />
    <path d="M 0.68664 -8.06522 L 0.68664 -8.04393" />
    <path d="M -9.31217 -8.07586 A 5 0.4894 0 0 1 0.68783 -8.07586 L 0.68783 -8.03952" />
    <path d="M 0.68783 -8.07586 A 5 0.4894 0 0 1 0.68664 -8.06522" />
    <path d="M -9.09994 -7.93479 L -9.09994 -7.65264" />
    <path d="M -27.10381 -7.23575 L -27.10381 -5.97814" />
    <path d="M -36.45254 -5.53249 L -36.45254 4.4195" />
    <path d="M -33.78747 -3.61666 L -33.78747 6.33532" />
</svg>